# xmcd
#
# Track frame offsets: 
#        150
#        12003
#        21518
#        31955
#        39720
#        50822
#        54000
#        62160
#        73380
#        85840
#        93500
#        98240
#        107979
#        112313
#        124191
#        133651
#        140783
#        154275
#        160987
#        173020
#        182313
#        190647
#        197907
#        205462
#        221278
#        230644
#        244588
#        255586
#        264235
#        274344
#        282471
#        285886
#        297573
#        306675
#
# Disc length: 4173 seconds
#
# Revision: 0
# Processed by: cddbd v1.5.2PL0 Copyright (c) Steve Scherf et al.
# Submitted via: ExactAudioCopy v0.99pb5
#
DISCID=11104b22
DTITLE="Song Catcher" John S. Hall - Old-Time Smoky Mountain Music
DYEAR=1900
DGENRE=
TTITLE0=My Home Is in the Smoky Mountain
TTITLE1=Down in the Willow Garden
TTITLE2=Bonaparte's Retreat
TTITLE3=Come, All You  Young Ladies
TTITLE4=I Started Out A-Courting
TTITLE5=Sourwood Mountain
TTITLE6=The Ramshackle Shack
TTITLE7=Going Down This Road Feeling Bad
TTITLE8=Kitty Wells
TTITLE9=Crying Holy Unto the Lord
TTITLE10=Unidentified Guitar Playing
TTITLE11=My Curly-Headed Baby
TTITLE12=The Girl I Love Don't Pay Me No Mind
TTITLE13=John Henry
TTITLE14=Cackling Hen
TTITLE15=That's How I Got My Start
TTITLE16=Don't Forget Me, Little Darling
TTITLE17=Pretty Little Miss
TTITLE18=Chinese Breakdown
TTITLE19=Mule Skinner Blues
TTITLE20=Ticklish Rubin
TTITLE21=The Big Bend Killing
TTITLE22=Polly Put the Kettle On
TTITLE23=Conversation with Death
TTITLE24=Paper of Pins
TTITLE25=Boston Girl
TTITLE26=The Dying Cowboy
TTITLE27=Cripple Creek
TTITLE28=Ground Hog
TTITLE29=Up on Big Pigeon
TTITLE30=John Henry
TTITLE31=Driving Down the Highway
TTITLE32=Little Rosewood Casket
TTITLE33=On Top of Old Smoky
EXTD=
EXTT0=
EXTT1=
EXTT2=
EXTT3=
EXTT4=
EXTT5=
EXTT6=
EXTT7=
EXTT8=
EXTT9=
EXTT10=
EXTT11=
EXTT12=
EXTT13=
EXTT14=
EXTT15=
EXTT16=
EXTT17=
EXTT18=
EXTT19=
EXTT20=
EXTT21=
EXTT22=
EXTT23=
EXTT24=
EXTT25=
EXTT26=
EXTT27=
EXTT28=
EXTT29=
EXTT30=
EXTT31=
EXTT32=
EXTT33=
PLAYORDER=
